<svg id="Layer_1" data-name="Layer 1" xmlns="http://www.w3.org/2000/svg" viewBox="0 0 812.01 213.79"><defs><style>.cls-1{fill:#fff;}.cls-2{fill:#003b71;}</style></defs><title>QUT_TAGLINE_LOGO_LEFT_RGB_paths_REV</title><rect class="cls-1" width="212.6" height="212.6"/><path class="cls-2" d="M505.34,112.22s0,54.47,0,56.94c0,4,4.89,22.42,30.33,22.42s29.49-18.36,29.49-22.28V136.74l-19.51-20.42V167.2c0,1,.08,6.19-10.05,6.19-10.5,0-10.5-5.09-10.5-6.33V112.25Z" transform="translate(-411.88 -91.06)"/><polygon class="cls-2" points="135.79 21.18 154.38 40.42 167.82 40.42 167.82 99.33 188.12 99.33 188.12 40.42 203.8 40.42 203.8 21.17 135.79 21.18"/><path class="cls-2" d="M495.07,173.61l16.61,16.89H489.3l-36.53-38h21.56l5.77,5.91a17.77,17.77,0,0,0,1.37-7.42c0-11.67-9.88-20.6-21.15-20.6S440,140,440,151.23a20.69,20.69,0,0,0,20.74,20.6,11.77,11.77,0,0,0,3.7-.42l15,16.07c-4.25,3-12.36,4.53-18.67,4.53-22.25,0-39.56-18.95-39.56-40.51a40.17,40.17,0,0,1,80.34.82c.14,8.93-4.25,18.13-6.45,21.29" transform="translate(-411.88 -91.06)"/><path class="cls-1" d="M671.4,203.18h-7.71v17.35c0,3,1.76,3.68,4.48,3.68,1,0,2.13-.15,3.23-.15v9.19c-2.28.07-4.55.36-6.83.36-10.66,0-13.38-3.08-13.38-13.45v-17h-6.32V195.1h6.32V183.56h12.5V195.1h7.71Z" transform="translate(-411.88 -91.06)"/><path class="cls-1" d="M676.33,180.77h12.49v19.55H689c1.91-3.9,7-6.32,11.61-6.32,12.72,0,13.75,9.26,13.75,14.77v24.48h-12.5V214.8c0-5.22.59-10.51-6.25-10.51-4.7,0-6.76,4-6.76,8.16v20.8H676.33Z" transform="translate(-411.88 -91.06)"/><path class="cls-1" d="M730.94,217.22c.22,5.22,3.23,8.68,8.52,8.68,3,0,6-1.4,7.13-4.19h11.69c-2.28,8.82-10.44,12.64-19,12.64-12.42,0-20.87-7.5-20.87-20.29,0-11.68,9.33-20.06,20.58-20.06,13.67,0,20.51,10.29,19.92,23.22Zm15.5-7c-.22-4.26-3.23-7.79-7.42-7.79-4.41,0-7.35,3.16-8.08,7.79Z" transform="translate(-411.88 -91.06)"/><path class="cls-1" d="M821.56,233.25H809.43V228h-.14a14.09,14.09,0,0,1-11.62,6.32c-10.95,0-14.11-6.32-14.11-16.32V195.1h12.5v22.12c0,5.07,2.2,6.84,6.17,6.84,2.72,0,6.83-1.77,6.83-8.53V195.1h12.5Z" transform="translate(-411.88 -91.06)"/><path class="cls-1" d="M827.59,195.1h12.12v5.22h.15c2.28-3.9,7.42-6.32,12-6.32,12.72,0,13.75,9.26,13.75,14.77v24.48h-12.5V214.8c0-5.22.59-10.51-6.25-10.51-4.7,0-6.76,4-6.76,8.16v20.8H827.59Z" transform="translate(-411.88 -91.06)"/><path class="cls-1" d="M884.47,190.32H872v-9.55h12.49ZM872,195.1h12.49v38.15H872Z" transform="translate(-411.88 -91.06)"/><path class="cls-1" d="M915.34,233.25h-14.4L888.22,195.1h13l7,25.21h.15l7.06-25.21h12.71Z" transform="translate(-411.88 -91.06)"/><path class="cls-1" d="M940.41,217.22c.22,5.22,3.23,8.68,8.52,8.68,3,0,6-1.4,7.13-4.19h11.69c-2.28,8.82-10.44,12.64-19,12.64-12.43,0-20.88-7.5-20.88-20.29,0-11.68,9.34-20.06,20.58-20.06,13.67,0,20.51,10.29,19.92,23.22Zm15.51-7c-.22-4.26-3.24-7.79-7.43-7.79-4.41,0-7.35,3.16-8.08,7.79Z" transform="translate(-411.88 -91.06)"/><path class="cls-1" d="M972.75,195.1h12.12v6.69H985c1.84-4.85,6.1-7.43,11.47-7.43a13.4,13.4,0,0,1,2.94.3v11.39a17.58,17.58,0,0,0-4.78-.73c-6.17,0-9.41,4.26-9.41,9v18.89H972.75Z" transform="translate(-411.88 -91.06)"/><path class="cls-1" d="M1013.32,220.68a5.11,5.11,0,0,0,2.06,4.26,7.81,7.81,0,0,0,4.63,1.32c2.42,0,5.88-1,5.88-4s-3.9-3.53-6.1-4c-7.87-2-17.72-2.21-17.72-12.5,0-9.18,9.92-11.68,17.42-11.68,8.38,0,17.13,2.42,17.57,12.35h-11.54a3.59,3.59,0,0,0-1.62-3.31,7.4,7.4,0,0,0-4-1c-2,0-5.36.22-5.36,2.87,0,3.6,8.38,4.26,14.11,5.51,7.72,1.54,9.7,7.13,9.7,10.29,0,10.22-9.7,13.6-18.3,13.6-9,0-18.3-3-18.67-13.67Z" transform="translate(-411.88 -91.06)"/><path class="cls-1" d="M1055.07,190.32h-12.5v-9.55h12.5Zm-12.5,4.78h12.5v38.15h-12.5Z" transform="translate(-411.88 -91.06)"/><path class="cls-1" d="M1086.16,203.18h-7.72v17.35c0,3,1.76,3.68,4.48,3.68,1,0,2.13-.15,3.24-.15v9.19c-2.28.07-4.56.36-6.84.36-10.66,0-13.38-3.08-13.38-13.45v-17h-6.32V195.1h6.32V183.56h12.5V195.1h7.72Z" transform="translate(-411.88 -91.06)"/><path class="cls-1" d="M1114,236.63c-3,8.38-7.5,9.41-16,9.41h-5.88V235.89h4.34c2.86,0,5-1.61,5-4.26,0-2.06-2.43-7.94-3.16-10l-9.85-26.53h13.23l7.2,24.84h.15l7.2-24.84h12.79Z" transform="translate(-411.88 -91.06)"/><path class="cls-1" d="M651.12,273.68h-6V265.6h6c0-11,3.82-14.33,14.48-14.33,2,0,4,.14,6,.22v8.82a26.37,26.37,0,0,0-3.38-.22c-2.86,0-4.63.37-4.63,3.82v1.69h7.5v8.08h-7.5v30.07H651.12Z" transform="translate(-411.88 -91.06)"/><path class="cls-1" d="M691.32,264.5c11.83,0,20.14,8.74,20.14,20.21s-8.31,20.14-20.14,20.14-20.07-8.67-20.07-20.14S679.49,264.5,691.32,264.5Zm0,30.79c5.81,0,7.64-5.73,7.64-10.58s-1.83-10.66-7.64-10.66-7.57,5.81-7.57,10.66S685.51,295.29,691.32,295.29Z" transform="translate(-411.88 -91.06)"/><path class="cls-1" d="M715.94,265.6h12.13v6.69h.15c1.84-4.85,6.1-7.43,11.46-7.43a13.28,13.28,0,0,1,2.94.3v11.39a17.45,17.45,0,0,0-4.77-.73c-6.18,0-9.41,4.26-9.41,9v18.89h-12.5Z" transform="translate(-411.88 -91.06)"/><path class="cls-1" d="M784.59,273.68h-7.72V291c0,3,1.77,3.68,4.49,3.68,1,0,2.13-.15,3.23-.15v9.19c-2.28.07-4.56.36-6.83.36-10.66,0-13.38-3.08-13.38-13.45v-17h-6.32V265.6h6.32V254.06h12.49V265.6h7.72Z" transform="translate(-411.88 -91.06)"/><path class="cls-1" d="M789.51,251.27H802v19.55h.15c1.91-3.9,7.05-6.32,11.61-6.32,12.72,0,13.74,9.26,13.74,14.77v24.48H815V285.3c0-5.22.59-10.51-6.25-10.51-4.7,0-6.76,4-6.76,8.16v20.8h-12.5Z" transform="translate(-411.88 -91.06)"/><path class="cls-1" d="M844,287.72c.22,5.22,3.23,8.68,8.52,8.68,3,0,6-1.4,7.13-4.19h11.69c-2.28,8.82-10.44,12.64-19,12.64-12.43,0-20.88-7.5-20.88-20.29,0-11.68,9.34-20.06,20.58-20.06,13.67,0,20.51,10.29,19.92,23.22Zm15.51-7c-.22-4.26-3.24-7.79-7.43-7.79-4.41,0-7.35,3.16-8.08,7.79Z" transform="translate(-411.88 -91.06)"/><path class="cls-1" d="M889.1,265.6h12.13v6.69h.15c1.84-4.85,6.1-7.43,11.47-7.43a13.25,13.25,0,0,1,2.93.3v11.39a17.45,17.45,0,0,0-4.77-.73c-6.18,0-9.41,4.26-9.41,9v18.89H889.1Z" transform="translate(-411.88 -91.06)"/><path class="cls-1" d="M929.38,287.72c.22,5.22,3.24,8.68,8.53,8.68,3,0,6-1.4,7.13-4.19h11.68c-2.27,8.82-10.43,12.64-19,12.64-12.42,0-20.87-7.5-20.87-20.29,0-11.68,9.33-20.06,20.58-20.06,13.67,0,20.5,10.29,19.92,23.22Zm15.51-7c-.22-4.26-3.23-7.79-7.42-7.79-4.41,0-7.35,3.16-8.09,7.79Z" transform="translate(-411.88 -91.06)"/><path class="cls-1" d="M960.62,277.36a11.74,11.74,0,0,1,6-10.22c3.38-1.91,7.79-2.64,12.13-2.64,9,0,17.79,2,17.79,12.79V294c0,3.24,0,6.76,1.47,9.78H985.39a15.16,15.16,0,0,1-.74-3.6c-3.23,3.38-8,4.7-12.56,4.7-7.28,0-13-3.68-13-11.54,0-12.42,13.52-11.47,22.19-13.23,2.14-.44,3.31-1.18,3.31-3.53,0-2.87-3.45-4-6-4-3.45,0-5.66,1.55-6.24,4.78Zm16.17,19.77c6,0,7.94-3.38,7.64-11.24-1.76,1.1-5,1.32-7.71,2.05s-5.15,1.84-5.15,4.85S974,297.13,976.79,297.13Z" transform="translate(-411.88 -91.06)"/><path class="cls-1" d="M1002.66,251.27h12.5v52.48h-12.5Z" transform="translate(-411.88 -91.06)"/><path class="cls-1" d="M1079.54,303.75H1066.9l-6-25.36h-.15l-6,25.36h-12.64l-11.91-38.15h12.64l6.4,24.7h.14l5.44-24.7h11.91l5.59,24.62h.14l6.25-24.62h12.72Z" transform="translate(-411.88 -91.06)"/><path class="cls-1" d="M1111.36,264.5c11.84,0,20.14,8.74,20.14,20.21s-8.3,20.14-20.14,20.14-20.06-8.67-20.06-20.14S1099.53,264.5,1111.36,264.5Zm0,30.79c5.81,0,7.65-5.73,7.65-10.58s-1.84-10.66-7.65-10.66-7.57,5.81-7.57,10.66S1105.56,295.29,1111.36,295.29Z" transform="translate(-411.88 -91.06)"/><path class="cls-1" d="M1136,265.6h12.12v6.69h.15c1.84-4.85,6.1-7.43,11.47-7.43a13.4,13.4,0,0,1,2.94.3v11.39a17.58,17.58,0,0,0-4.78-.73c-6.17,0-9.41,4.26-9.41,9v18.89H1136Z" transform="translate(-411.88 -91.06)"/><path class="cls-1" d="M1167.3,251.27h12.49v52.48H1167.3Z" transform="translate(-411.88 -91.06)"/><path class="cls-1" d="M1223.89,303.75H1212v-4.41h-.15a12.2,12.2,0,0,1-10.51,5.51c-12,0-17.06-10.29-17.06-21,0-9.92,5.3-19.33,16.1-19.33a12.75,12.75,0,0,1,10.88,5.22h.15V251.27h12.49Zm-27.12-19.48c0,5.22,1.91,11,7.64,11,6.1,0,7.43-5.8,7.43-10.65,0-5.52-2-10.59-7.43-10.59C1198.68,274.05,1196.77,279.42,1196.77,284.27Z" transform="translate(-411.88 -91.06)"/></svg>